<svg width="30" height="30" viewBox="0 0 30 30" fill="none" xmlns="http://www.w3.org/2000/svg">
<path d="M27.5 18.75L20 11.25M27.5 11.25L20 18.75" stroke="black" stroke-width="2" stroke-linecap="round"/>
<path d="M2.5 18.6988V11.3C2.5 10.5825 3.06 10 3.75 10H8.2325C8.39792 9.99943 8.5615 9.96535 8.71339 9.89982C8.86527 9.8343 9.00232 9.73869 9.11625 9.61877L12.8663 5.38377C13.6538 4.56377 15 5.14502 15 6.30377V23.6963C15 24.8638 13.6375 25.44 12.855 24.6038L9.1175 20.3925C9.00324 20.2692 8.86481 20.1707 8.71084 20.1031C8.55686 20.0356 8.39063 20.0005 8.2225 20H3.75C3.06 20 2.5 19.4175 2.5 18.6988Z" stroke="black" stroke-width="2" stroke-linecap="round" stroke-linejoin="round"/>
</svg>
